<?xml version="1.0" standalone="no"?><!DOCTYPE svg PUBLIC "-//W3C//DTD SVG 1.1//EN" "http://www.w3.org/Graphics/SVG/1.1/DTD/svg11.dtd"><svg width="28" height="25" viewBox="0 0 200 200" version="1.1" xmlns="http://www.w3.org/2000/svg" xmlns:xlink="http://www.w3.org/1999/xlink"><defs><style type="text/css"><![CDATA[
@font-face { font-family: ifont; src: url("//at.alicdn.com/t/font_1442373896_4754455.eot?#iefix") format("embedded-opentype"), url("//at.alicdn.com/t/font_1442373896_4754455.woff") format("woff"), url("//at.alicdn.com/t/font_1442373896_4754455.ttf") format("truetype"), url("//at.alicdn.com/t/font_1442373896_4754455.svg#ifont") format("svg"); }

]]></style></defs><g class="transform-group"><g transform="scale(0.1953125, 0.1953125)"><path d="M94.112 66.016c-17.6 0-32 14.4-32 32l0 192c0 17.6 14.4 32 32 32l192 0c17.6 0 32-14.4 32-32l0-192c0-17.6-14.4-32-32-32L94.112 66.016zM254.112 226.016c0 17.6-14.4 32-32 32l-64 0c-17.6 0-32-14.4-32-32l0-64c0-17.6 14.4-32 32-32l64 0c17.6 0 32 14.4 32 32L254.112 226.016zM94.112 386.016c-17.6 0-32 14.4-32 32l0 191.936c0 17.6 14.4 32 32 32l192 0c17.6 0 32-14.4 32-32l0-191.936c0-17.6-14.4-32-32-32L94.112 386.016zM254.112 546.016c0 17.6-14.4 32-32 32l-64 0c-17.6 0-32-14.4-32-32l0-64c0-17.6 14.4-32 32-32l64 0c17.6 0 32 14.4 32 32L254.112 546.016zM94.112 706.016c-17.6 0-32 14.4-32 32l0 192c0 17.6 14.4 32 32 32l192 0c17.6 0 32-14.4 32-32l0-192c0-17.6-14.4-32-32-32L94.112 706.016zM254.112 866.016c0 17.6-14.4 32-32 32l-64 0c-17.6 0-32-14.4-32-32l0-64c0-17.6 14.4-32 32-32l64 0c17.6 0 32 14.4 32 32L254.112 866.016zM418.08 66.016c-17.6 0-32 14.4-32 32l0 192c0 17.6 14.4 32 32 32l509.344 0c17.6 0 32-14.4 32-32l0-192c0-17.6-14.4-32-32-32L418.08 66.016zM894.112 224.64c0 17.6-14.4 32-32 32l-381.344 0c-17.6 0-32-14.4-32-32l0-62.624c0-17.6 14.4-32 32-32l381.344 0c17.6 0 32 14.4 32 32L894.112 224.64zM418.08 386.016c-17.6 0-32 14.4-32 32l0 191.936c0 17.6 14.4 32 32 32l509.344 0c17.6 0 32-14.4 32-32l0-191.936c0-17.6-14.4-32-32-32L418.08 386.016zM894.112 544.608c0 17.6-14.4 32-32 32l-381.344 0c-17.6 0-32-14.4-32-32l0-62.624c0-17.6 14.4-32 32-32l381.344 0c17.6 0 32 14.4 32 32L894.112 544.608zM418.08 706.016c-17.6 0-32 14.4-32 32l0 192c0 17.6 14.4 32 32 32l509.344 0c17.6 0 32-14.4 32-32l0-192c0-17.6-14.4-32-32-32L418.08 706.016zM894.112 864.64c0 17.6-14.4 32-32 32l-381.344 0c-17.6 0-32-14.4-32-32l0-62.688c0-17.6 14.4-32 32-32l381.344 0c17.6 0 32 14.4 32 32L894.112 864.64z" fill="#ffffff"></path></g></g></svg>